<?xml version="1.0" encoding="UTF-8" ?>
<svg version="1.1" width="80" height="80" xmlns="http://www.w3.org/2000/svg" shape-rendering="crispEdges">
<rect x="33" y="4" width="1" height="1" fill="#87543A" />
<rect x="32" y="5" width="1" height="6" fill="#70433A" />
<rect x="41" y="5" width="3" height="1" fill="#70433A" />
<rect x="31" y="6" width="1" height="1" fill="#70433A" />
<rect x="36" y="6" width="5" height="1" fill="#87543A" />
<rect x="41" y="6" width="1" height="1" fill="#BF804B" />
<rect x="42" y="6" width="1" height="1" fill="#70433A" />
<rect x="27" y="7" width="2" height="1" fill="#70433A" />
<rect x="30" y="7" width="1" height="1" fill="#70433A" />
<rect x="31" y="7" width="1" height="3" fill="#E8C27E" />
<rect x="34" y="7" width="2" height="1" fill="#87543A" />
<rect x="36" y="7" width="3" height="2" fill="#E8C27E" />
<rect x="39" y="7" width="1" height="1" fill="#E1AE70" />
<rect x="40" y="7" width="1" height="2" fill="#BF804B" />
<rect x="41" y="7" width="8" height="1" fill="#87543A" />
<rect x="24" y="8" width="1" height="7" fill="#70433A" />
<rect x="27" y="8" width="1" height="6" fill="#70433A" />
<rect x="28" y="8" width="1" height="3" fill="#E8C27E" />
<rect x="29" y="8" width="1" height="2" fill="#70433A" />
<rect x="30" y="8" width="1" height="4" fill="#E8C27E" />
<rect x="33" y="8" width="1" height="1" fill="#87543A" />
<rect x="34" y="8" width="1" height="1" fill="#BF804B" />
<rect x="35" y="8" width="1" height="2" fill="#E8C27E" />
<rect x="39" y="8" width="1" height="2" fill="#BF804B" />
<rect x="41" y="8" width="2" height="1" fill="#BF804B" />
<rect x="43" y="8" width="2" height="1" fill="#E1AE70" />
<rect x="45" y="8" width="4" height="1" fill="#E8C27E" />
<rect x="49" y="8" width="4" height="1" fill="#70433A" />
<rect x="33" y="9" width="1" height="3" fill="#BF804B" />
<rect x="34" y="9" width="1" height="1" fill="#E8C27E" />
<rect x="36" y="9" width="3" height="1" fill="#87543A" />
<rect x="40" y="9" width="1" height="2" fill="#E1AE70" />
<rect x="41" y="9" width="5" height="1" fill="#E8C27E" />
<rect x="46" y="9" width="5" height="1" fill="#E1AE70" />
<rect x="51" y="9" width="1" height="1" fill="#BF804B" />
<rect x="52" y="9" width="3" height="1" fill="#70433A" />
<rect x="25" y="10" width="1" height="1" fill="#70433A" />
<rect x="29" y="10" width="1" height="6" fill="#BF804B" />
<rect x="31" y="10" width="1" height="5" fill="#BF804B" />
<rect x="34" y="10" width="1" height="1" fill="#BF804B" />
<rect x="35" y="10" width="3" height="1" fill="#87543A" />
<rect x="38" y="10" width="1" height="1" fill="#BF804B" />
<rect x="39" y="10" width="1" height="1" fill="#E1AE70" />
<rect x="41" y="10" width="4" height="1" fill="#BF804B" />
<rect x="45" y="10" width="3" height="1" fill="#E8C27E" />
<rect x="48" y="10" width="5" height="1" fill="#E1AE70" />
<rect x="53" y="10" width="2" height="2" fill="#E8C27E" />
<rect x="55" y="10" width="2" height="1" fill="#70433A" />
<rect x="25" y="11" width="1" height="2" fill="#E1AE70" />
<rect x="26" y="11" width="1" height="1" fill="#70433A" />
<rect x="28" y="11" width="1" height="2" fill="#E1AE70" />
<rect x="32" y="11" width="1" height="5" fill="#BF804B" />
<rect x="34" y="11" width="3" height="2" fill="#87543A" />
<rect x="37" y="11" width="1" height="3" fill="#BF804B" />
<rect x="38" y="11" width="1" height="1" fill="#E1AE70" />
<rect x="39" y="11" width="1" height="1" fill="#BF804B" />
<rect x="40" y="11" width="3" height="1" fill="#87543A" />
<rect x="43" y="11" width="5" height="1" fill="#BF804B" />
<rect x="48" y="11" width="2" height="1" fill="#E8C27E" />
<rect x="50" y="11" width="3" height="1" fill="#BF804B" />
<rect x="55" y="11" width="1" height="1" fill="#E8C27E" />
<rect x="56" y="11" width="1" height="1" fill="#BF804B" />
<rect x="57" y="11" width="2" height="1" fill="#70433A" />
<rect x="26" y="12" width="1" height="2" fill="#E1AE70" />
<rect x="30" y="12" width="1" height="1" fill="#BF804B" />
<rect x="33" y="12" width="1" height="5" fill="#87543A" />
<rect x="38" y="12" width="1" height="1" fill="#BF804B" />
<rect x="39" y="12" width="3" height="1" fill="#87543A" />
<rect x="42" y="12" width="1" height="2" fill="#BF804B" />
<rect x="43" y="12" width="4" height="1" fill="#E1AE70" />
<rect x="47" y="12" width="2" height="1" fill="#BF804B" />
<rect x="49" y="12" width="3" height="2" fill="#E8C27E" />
<rect x="52" y="12" width="1" height="1" fill="#BF804B" />
<rect x="53" y="12" width="4" height="1" fill="#87543A" />
<rect x="25" y="13" width="1" height="1" fill="#BF804B" />
<rect x="28" y="13" width="1" height="1" fill="#70433A" />
<rect x="30" y="13" width="1" height="4" fill="#87543A" />
<rect x="34" y="13" width="2" height="3" fill="#87543A" />
<rect x="36" y="13" width="1" height="2" fill="#BF804B" />
<rect x="38" y="13" width="3" height="4" fill="#87543A" />
<rect x="41" y="13" width="1" height="1" fill="#BF804B" />
<rect x="43" y="13" width="2" height="1" fill="#BF804B" />
<rect x="45" y="13" width="4" height="1" fill="#E8C27E" />
<rect x="52" y="13" width="2" height="1" fill="#E8C27E" />
<rect x="54" y="13" width="2" height="1" fill="#BF804B" />
<rect x="56" y="13" width="2" height="1" fill="#87543A" />
<rect x="25" y="14" width="1" height="2" fill="#70433A" />
<rect x="26" y="14" width="2" height="1" fill="#BF804B" />
<rect x="28" y="14" width="1" height="1" fill="#87543A" />
<rect x="37" y="14" width="1" height="2" fill="#87543A" />
<rect x="41" y="14" width="6" height="1" fill="#87543A" />
<rect x="47" y="14" width="4" height="1" fill="#BF804B" />
<rect x="51" y="14" width="2" height="1" fill="#E1AE70" />
<rect x="53" y="14" width="4" height="1" fill="#E8C27E" />
<rect x="57" y="14" width="1" height="1" fill="#BF804B" />
<rect x="58" y="14" width="2" height="1" fill="#70433A" />
<rect x="26" y="15" width="1" height="1" fill="#87543A" />
<rect x="27" y="15" width="2" height="1" fill="#BF804B" />
<rect x="31" y="15" width="1" height="4" fill="#87543A" />
<rect x="36" y="15" width="1" height="1" fill="#87543A" />
<rect x="41" y="15" width="2" height="2" fill="#87543A" />
<rect x="43" y="15" width="3" height="1" fill="#BF804B" />
<rect x="46" y="15" width="2" height="1" fill="#87543A" />
<rect x="48" y="15" width="4" height="1" fill="#BF804B" />
<rect x="52" y="15" width="1" height="1" fill="#87543A" />
<rect x="53" y="15" width="1" height="1" fill="#E1AE70" />
<rect x="54" y="15" width="5" height="1" fill="#E8C27E" />
<rect x="59" y="15" width="1" height="1" fill="#BF804B" />
<rect x="60" y="15" width="2" height="1" fill="#70433A" />
<rect x="24" y="16" width="1" height="1" fill="#70433A" />
<rect x="25" y="16" width="1" height="1" fill="#87543A" />
<rect x="26" y="16" width="2" height="2" fill="#BF804B" />
<rect x="28" y="16" width="2" height="1" fill="#87543A" />
<rect x="32" y="16" width="1" height="2" fill="#87543A" />
<rect x="34" y="16" width="4" height="1" fill="#D28354" />
<rect x="43" y="16" width="2" height="2" fill="#87543A" />
<rect x="45" y="16" width="2" height="1" fill="#BF804B" />
<rect x="47" y="16" width="3" height="1" fill="#87543A" />
<rect x="50" y="16" width="3" height="1" fill="#BF804B" />
<rect x="53" y="16" width="2" height="2" fill="#87543A" />
<rect x="55" y="16" width="1" height="1" fill="#BF804B" />
<rect x="56" y="16" width="1" height="1" fill="#E8C27E" />
<rect x="57" y="16" width="1" height="2" fill="#E1AE70" />
<rect x="58" y="16" width="1" height="1" fill="#E8C27E" />
<rect x="59" y="16" width="2" height="1" fill="#70433A" />
<rect x="23" y="17" width="2" height="1" fill="#87543A" />
<rect x="25" y="17" width="1" height="1" fill="#BF804B" />
<rect x="28" y="17" width="1" height="3" fill="#E1AE70" />
<rect x="29" y="17" width="2" height="1" fill="#BF804B" />
<rect x="33" y="17" width="1" height="1" fill="#D28354" />
<rect x="34" y="17" width="4" height="8" fill="#ECB478" />
<rect x="38" y="17" width="4" height="1" fill="#D28354" />
<rect x="42" y="17" width="1" height="1" fill="#87543A" />
<rect x="45" y="17" width="4" height="1" fill="#87543A" />
<rect x="49" y="17" width="1" height="1" fill="#70433A" />
<rect x="50" y="17" width="3" height="1" fill="#87543A" />
<rect x="55" y="17" width="1" height="3" fill="#87543A" />
<rect x="56" y="17" width="1" height="1" fill="#BF804B" />
<rect x="58" y="17" width="1" height="2" fill="#BF804B" />
<rect x="59" y="17" width="1" height="1" fill="#70433A" />
<rect x="22" y="18" width="1" height="2" fill="#70433A" />
<rect x="23" y="18" width="2" height="1" fill="#BF804B" />
<rect x="25" y="18" width="2" height="1" fill="#87543A" />
<rect x="27" y="18" width="1" height="1" fill="#BF804B" />
<rect x="29" y="18" width="1" height="1" fill="#BF804B" />
<rect x="30" y="18" width="1" height="7" fill="#87543A" />
<rect x="32" y="18" width="1" height="9" fill="#D28354" />
<rect x="33" y="18" width="1" height="5" fill="#ECB478" />
<rect x="38" y="18" width="1" height="7" fill="#ECB478" />
<rect x="39" y="18" width="7" height="1" fill="#D28354" />
<rect x="46" y="18" width="2" height="1" fill="#87543A" />
<rect x="48" y="18" width="3" height="2" fill="#D28354" />
<rect x="51" y="18" width="3" height="1" fill="#70433A" />
<rect x="54" y="18" width="1" height="1" fill="#87543A" />
<rect x="56" y="18" width="1" height="13" fill="#87543A" />
<rect x="57" y="18" width="1" height="1" fill="#BF804B" />
<rect x="59" y="18" width="1" height="2" fill="#BF804B" />
<rect x="60" y="18" width="1" height="4" fill="#70433A" />
<rect x="23" y="19" width="1" height="1" fill="#BF804B" />
<rect x="24" y="19" width="2" height="4" fill="#87543A" />
<rect x="26" y="19" width="1" height="1" fill="#BF804B" />
<rect x="27" y="19" width="1" height="2" fill="#E1AE70" />
<rect x="29" y="19" width="1" height="2" fill="#87543A" />
<rect x="31" y="19" width="1" height="21" fill="#D28354" />
<rect x="39" y="19" width="2" height="6" fill="#ECB478" />
<rect x="41" y="19" width="6" height="1" fill="#D28354" />
<rect x="47" y="19" width="1" height="1" fill="#87543A" />
<rect x="51" y="19" width="2" height="1" fill="#D28354" />
<rect x="53" y="19" width="2" height="1" fill="#70433A" />
<rect x="57" y="19" width="2" height="2" fill="#87543A" />
<rect x="21" y="20" width="1" height="2" fill="#70433A" />
<rect x="22" y="20" width="2" height="1" fill="#87543A" />
<rect x="26" y="20" width="1" height="1" fill="#87543A" />
<rect x="28" y="20" width="1" height="4" fill="#87543A" />
<rect x="41" y="20" width="2" height="5" fill="#ECB478" />
<rect x="43" y="20" width="6" height="1" fill="#D28354" />
<rect x="49" y="20" width="3" height="5" fill="#ECB478" />
<rect x="52" y="20" width="3" height="1" fill="#D28354" />
<rect x="55" y="20" width="1" height="11" fill="#70433A" />
<rect x="59" y="20" width="1" height="1" fill="#87543A" />
<rect x="22" y="21" width="1" height="5" fill="#70433A" />
<rect x="23" y="21" width="1" height="3" fill="#87543A" />
<rect x="26" y="21" width="1" height="2" fill="#BF804B" />
<rect x="27" y="21" width="1" height="10" fill="#87543A" />
<rect x="29" y="21" width="1" height="9" fill="#70433A" />
<rect x="43" y="21" width="6" height="2" fill="#ECB478" />
<rect x="52" y="21" width="2" height="4" fill="#ECB478" />
<rect x="54" y="21" width="1" height="1" fill="#D28354" />
<rect x="57" y="21" width="1" height="3" fill="#BF804B" />
<rect x="58" y="21" width="1" height="1" fill="#87543A" />
<rect x="59" y="21" width="1" height="5" fill="#70433A" />
<rect x="61" y="21" width="1" height="1" fill="#70433A" />
<rect x="54" y="22" width="1" height="4" fill="#ECB478" />
<rect x="58" y="22" width="1" height="3" fill="#BF804B" />
<rect x="24" y="23" width="1" height="6" fill="#70433A" />
<rect x="25" y="23" width="2" height="4" fill="#87543A" />
<rect x="33" y="23" width="1" height="3" fill="#D28354" />
<rect x="43" y="23" width="1" height="3" fill="#ECB478" />
<rect x="44" y="23" width="1" height="4" fill="#D28354" />
<rect x="45" y="23" width="1" height="10" fill="#ECB478" />
<rect x="46" y="23" width="1" height="3" fill="#D28354" />
<rect x="47" y="23" width="2" height="2" fill="#ECB478" />
<rect x="23" y="24" width="1" height="5" fill="#70433A" />
<rect x="28" y="24" width="1" height="2" fill="#70433A" />
<rect x="57" y="24" width="1" height="4" fill="#87543A" />
<rect x="30" y="25" width="1" height="12" fill="#D28354" />
<rect x="34" y="25" width="9" height="2" fill="#87543A" />
<rect x="47" y="25" width="7" height="2" fill="#87543A" />
<rect x="58" y="25" width="1" height="4" fill="#70433A" />
<rect x="28" y="26" width="1" height="2" fill="#87543A" />
<rect x="33" y="26" width="1" height="2" fill="#87543A" />
<rect x="43" y="26" width="1" height="2" fill="#87543A" />
<rect x="46" y="26" width="1" height="1" fill="#87543A" />
<rect x="54" y="26" width="1" height="2" fill="#87543A" />
<rect x="25" y="27" width="1" height="2" fill="#70433A" />
<rect x="26" y="27" width="1" height="2" fill="#87543A" />
<rect x="32" y="27" width="1" height="1" fill="#87543A" />
<rect x="34" y="27" width="7" height="1" fill="#D28354" />
<rect x="41" y="27" width="1" height="3" fill="#87543A" />
<rect x="42" y="27" width="1" height="1" fill="#D28354" />
<rect x="44" y="27" width="1" height="4" fill="#ECB478" />
<rect x="46" y="27" width="1" height="6" fill="#ECB478" />
<rect x="47" y="27" width="2" height="2" fill="#70433A" />
<rect x="49" y="27" width="5" height="1" fill="#D28354" />
<rect x="28" y="28" width="1" height="12" fill="#70433A" />
<rect x="32" y="28" width="4" height="1" fill="#D28354" />
<rect x="36" y="28" width="5" height="1" fill="#87543A" />
<rect x="42" y="28" width="1" height="1" fill="#87543A" />
<rect x="43" y="28" width="1" height="6" fill="#D28354" />
<rect x="49" y="28" width="4" height="1" fill="#87543A" />
<rect x="53" y="28" width="2" height="1" fill="#D28354" />
<rect x="57" y="28" width="1" height="2" fill="#70433A" />
<rect x="23" y="29" width="4" height="1" fill="#472B34" />
<rect x="32" y="29" width="2" height="2" fill="#D28354" />
<rect x="34" y="29" width="1" height="1" fill="#70433A" />
<rect x="35" y="29" width="5" height="1" fill="#472B34" />
<rect x="40" y="29" width="1" height="1" fill="#70433A" />
<rect x="42" y="29" width="1" height="2" fill="#D28354" />
<rect x="47" y="29" width="1" height="1" fill="#70433A" />
<rect x="48" y="29" width="5" height="1" fill="#472B34" />
<rect x="53" y="29" width="1" height="1" fill="#87543A" />
<rect x="54" y="29" width="1" height="2" fill="#D28354" />
<rect x="22" y="30" width="1" height="7" fill="#472B34" />
<rect x="23" y="30" width="3" height="2" fill="#D28354" />
<rect x="26" y="30" width="1" height="1" fill="#472B34" />
<rect x="29" y="30" width="1" height="4" fill="#87543A" />
<rect x="34" y="30" width="2" height="1" fill="#D28354" />
<rect x="36" y="30" width="3" height="1" fill="#472B34" />
<rect x="39" y="30" width="3" height="1" fill="#D28354" />
<rect x="47" y="30" width="1" height="1" fill="#D28354" />
<rect x="48" y="30" width="1" height="1" fill="#87543A" />
<rect x="49" y="30" width="2" height="1" fill="#472B34" />
<rect x="51" y="30" width="3" height="1" fill="#D28354" />
<rect x="57" y="30" width="1" height="1" fill="#472B34" />
<rect x="26" y="31" width="1" height="4" fill="#D28354" />
<rect x="27" y="31" width="1" height="2" fill="#70433A" />
<rect x="32" y="31" width="3" height="4" fill="#ECB478" />
<rect x="35" y="31" width="4" height="1" fill="#D28354" />
<rect x="39" y="31" width="4" height="1" fill="#ECB478" />
<rect x="44" y="31" width="1" height="3" fill="#D28354" />
<rect x="47" y="31" width="1" height="2" fill="#ECB478" />
<rect x="48" y="31" width="2" height="1" fill="#D28354" />
<rect x="50" y="31" width="1" height="1" fill="#C98B55" />
<rect x="51" y="31" width="4" height="4" fill="#ECB478" />
<rect x="55" y="31" width="1" height="1" fill="#87543A" />
<rect x="56" y="31" width="1" height="4" fill="#472B34" />
<rect x="57" y="31" width="1" height="4" fill="#AD5D42" />
<rect x="23" y="32" width="1" height="4" fill="#D28354" />
<rect x="24" y="32" width="2" height="2" fill="#AD5D42" />
<rect x="35" y="32" width="7" height="1" fill="#ECB478" />
<rect x="42" y="32" width="1" height="2" fill="#D28354" />
<rect x="48" y="32" width="1" height="2" fill="#ECB478" />
<rect x="49" y="32" width="1" height="1" fill="#D28354" />
<rect x="50" y="32" width="1" height="3" fill="#ECB478" />
<rect x="55" y="32" width="1" height="6" fill="#ECB478" />
<rect x="27" y="33" width="1" height="2" fill="#AD5D42" />
<rect x="35" y="33" width="6" height="1" fill="#ECB478" />
<rect x="41" y="33" width="1" height="2" fill="#AD5D42" />
<rect x="45" y="33" width="3" height="1" fill="#D28354" />
<rect x="49" y="33" width="1" height="1" fill="#AD5D42" />
<rect x="24" y="34" width="1" height="4" fill="#D28354" />
<rect x="25" y="34" width="1" height="2" fill="#AD5D42" />
<rect x="29" y="34" width="1" height="6" fill="#BF804B" />
<rect x="35" y="34" width="5" height="2" fill="#ECB478" />
<rect x="40" y="34" width="1" height="1" fill="#AD5D42" />
<rect x="42" y="34" width="7" height="1" fill="#AD5D42" />
<rect x="49" y="34" width="1" height="1" fill="#70433A" />
<rect x="26" y="35" width="1" height="2" fill="#AD5D42" />
<rect x="27" y="35" width="1" height="5" fill="#D28354" />
<rect x="32" y="35" width="1" height="4" fill="#D28354" />
<rect x="33" y="35" width="2" height="2" fill="#ECB478" />
<rect x="40" y="35" width="1" height="1" fill="#D28354" />
<rect x="41" y="35" width="4" height="1" fill="#70433A" />
<rect x="45" y="35" width="2" height="1" fill="#AD5D42" />
<rect x="47" y="35" width="2" height="1" fill="#472B34" />
<rect x="49" y="35" width="3" height="1" fill="#D28354" />
<rect x="52" y="35" width="3" height="1" fill="#ECB478" />
<rect x="56" y="35" width="1" height="1" fill="#70433A" />
<rect x="57" y="35" width="1" height="10" fill="#472B34" />
<rect x="23" y="36" width="1" height="1" fill="#AD5D42" />
<rect x="25" y="36" width="1" height="3" fill="#D28354" />
<rect x="35" y="36" width="2" height="1" fill="#ECB478" />
<rect x="37" y="36" width="3" height="2" fill="#BF804B" />
<rect x="40" y="36" width="2" height="1" fill="#87543A" />
<rect x="42" y="36" width="6" height="1" fill="#70433A" />
<rect x="48" y="36" width="2" height="1" fill="#87543A" />
<rect x="50" y="36" width="1" height="3" fill="#BF804B" />
<rect x="51" y="36" width="2" height="1" fill="#C98B55" />
<rect x="53" y="36" width="2" height="1" fill="#ECB478" />
<rect x="56" y="36" width="1" height="9" fill="#87543A" />
<rect x="23" y="37" width="1" height="2" fill="#472B34" />
<rect x="26" y="37" width="1" height="3" fill="#D28354" />
<rect x="30" y="37" width="1" height="6" fill="#BF804B" />
<rect x="33" y="37" width="1" height="3" fill="#D28354" />
<rect x="34" y="37" width="1" height="2" fill="#ECB478" />
<rect x="35" y="37" width="2" height="1" fill="#BF804B" />
<rect x="40" y="37" width="1" height="2" fill="#BF804B" />
<rect x="41" y="37" width="3" height="1" fill="#87543A" />
<rect x="44" y="37" width="3" height="1" fill="#70433A" />
<rect x="47" y="37" width="2" height="1" fill="#87543A" />
<rect x="49" y="37" width="1" height="2" fill="#BF804B" />
<rect x="51" y="37" width="2" height="2" fill="#BF804B" />
<rect x="53" y="37" width="1" height="1" fill="#C98B55" />
<rect x="54" y="37" width="1" height="3" fill="#ECB478" />
<rect x="24" y="38" width="1" height="1" fill="#AD5D42" />
<rect x="35" y="38" width="1" height="2" fill="#BF804B" />
<rect x="36" y="38" width="2" height="2" fill="#87543A" />
<rect x="38" y="38" width="2" height="1" fill="#BF804B" />
<rect x="41" y="38" width="8" height="1" fill="#BF804B" />
<rect x="53" y="38" width="1" height="8" fill="#BF804B" />
<rect x="55" y="38" width="1" height="4" fill="#C98B55" />
<rect x="24" y="39" width="1" height="1" fill="#472B34" />
<rect x="25" y="39" width="1" height="1" fill="#AD5D42" />
<rect x="32" y="39" width="1" height="8" fill="#87543A" />
<rect x="34" y="39" width="1" height="3" fill="#D28354" />
<rect x="38" y="39" width="2" height="1" fill="#70433A" />
<rect x="40" y="39" width="8" height="1" fill="#AD5D42" />
<rect x="48" y="39" width="3" height="1" fill="#70433A" />
<rect x="51" y="39" width="2" height="1" fill="#87543A" />
<rect x="25" y="40" width="4" height="1" fill="#472B34" />
<rect x="29" y="40" width="1" height="5" fill="#87543A" />
<rect x="31" y="40" width="1" height="1" fill="#BF804B" />
<rect x="33" y="40" width="1" height="4" fill="#BF804B" />
<rect x="35" y="40" width="2" height="1" fill="#87543A" />
<rect x="37" y="40" width="2" height="1" fill="#D28354" />
<rect x="39" y="40" width="12" height="1" fill="#ECB478" />
<rect x="51" y="40" width="1" height="1" fill="#D28354" />
<rect x="52" y="40" width="1" height="1" fill="#70433A" />
<rect x="54" y="40" width="1" height="3" fill="#C98B55" />
<rect x="28" y="41" width="1" height="4" fill="#472B34" />
<rect x="31" y="41" width="1" height="6" fill="#87543A" />
<rect x="35" y="41" width="1" height="4" fill="#87543A" />
<rect x="36" y="41" width="1" height="2" fill="#C98B55" />
<rect x="37" y="41" width="6" height="2" fill="#ECB478" />
<rect x="43" y="41" width="5" height="1" fill="#D28354" />
<rect x="48" y="41" width="4" height="3" fill="#ECB478" />
<rect x="52" y="41" width="1" height="2" fill="#C98B55" />
<rect x="34" y="42" width="1" height="1" fill="#BF804B" />
<rect x="43" y="42" width="1" height="4" fill="#C98B55" />
<rect x="44" y="42" width="3" height="1" fill="#BF804B" />
<rect x="47" y="42" width="1" height="1" fill="#D28354" />
<rect x="55" y="42" width="1" height="2" fill="#BF804B" />
<rect x="30" y="43" width="1" height="3" fill="#87543A" />
<rect x="34" y="43" width="1" height="5" fill="#87543A" />
<rect x="36" y="43" width="1" height="4" fill="#BF804B" />
<rect x="37" y="43" width="1" height="2" fill="#C98B55" />
<rect x="38" y="43" width="4" height="1" fill="#ECB478" />
<rect x="42" y="43" width="1" height="1" fill="#C98B55" />
<rect x="44" y="43" width="2" height="1" fill="#BF804B" />
<rect x="46" y="43" width="2" height="2" fill="#C98B55" />
<rect x="52" y="43" width="1" height="1" fill="#BF804B" />
<rect x="54" y="43" width="1" height="4" fill="#BF804B" />
<rect x="33" y="44" width="1" height="4" fill="#87543A" />
<rect x="38" y="44" width="1" height="1" fill="#C98B55" />
<rect x="39" y="44" width="4" height="1" fill="#ECB478" />
<rect x="44" y="44" width="2" height="1" fill="#C98B55" />
<rect x="48" y="44" width="1" height="1" fill="#C98B55" />
<rect x="49" y="44" width="1" height="1" fill="#ECB478" />
<rect x="50" y="44" width="3" height="1" fill="#C98B55" />
<rect x="55" y="44" width="1" height="3" fill="#87543A" />
<rect x="29" y="45" width="1" height="9" fill="#472B34" />
<rect x="35" y="45" width="1" height="1" fill="#BF804B" />
<rect x="37" y="45" width="2" height="2" fill="#BF804B" />
<rect x="39" y="45" width="2" height="1" fill="#C98B55" />
<rect x="41" y="45" width="1" height="1" fill="#ECB478" />
<rect x="42" y="45" width="1" height="2" fill="#C98B55" />
<rect x="44" y="45" width="1" height="3" fill="#BF804B" />
<rect x="45" y="45" width="1" height="1" fill="#C98B55" />
<rect x="46" y="45" width="1" height="4" fill="#BF804B" />
<rect x="47" y="45" width="1" height="1" fill="#C98B55" />
<rect x="48" y="45" width="1" height="4" fill="#BF804B" />
<rect x="49" y="45" width="1" height="1" fill="#C98B55" />
<rect x="50" y="45" width="1" height="4" fill="#BF804B" />
<rect x="51" y="45" width="1" height="1" fill="#C98B55" />
<rect x="52" y="45" width="1" height="3" fill="#BF804B" />
<rect x="56" y="45" width="1" height="2" fill="#472B34" />
<rect x="30" y="46" width="1" height="1" fill="#70433A" />
<rect x="35" y="46" width="1" height="3" fill="#87543A" />
<rect x="39" y="46" width="2" height="3" fill="#BF804B" />
<rect x="41" y="46" width="1" height="1" fill="#C98B55" />
<rect x="43" y="46" width="1" height="3" fill="#BF804B" />
<rect x="45" y="46" width="1" height="1" fill="#BF804B" />
<rect x="47" y="46" width="1" height="2" fill="#BF804B" />
<rect x="49" y="46" width="1" height="2" fill="#BF804B" />
<rect x="51" y="46" width="1" height="1" fill="#BF804B" />
<rect x="53" y="46" width="1" height="3" fill="#87543A" />
<rect x="30" y="47" width="1" height="7" fill="#AD5D42" />
<rect x="31" y="47" width="2" height="1" fill="#70433A" />
<rect x="36" y="47" width="2" height="2" fill="#87543A" />
<rect x="38" y="47" width="1" height="1" fill="#BF804B" />
<rect x="41" y="47" width="2" height="1" fill="#BF804B" />
<rect x="45" y="47" width="1" height="4" fill="#87543A" />
<rect x="51" y="47" width="1" height="3" fill="#87543A" />
<rect x="54" y="47" width="1" height="1" fill="#87543A" />
<rect x="55" y="47" width="1" height="1" fill="#472B34" />
<rect x="31" y="48" width="1" height="7" fill="#AD5D42" />
<rect x="32" y="48" width="3" height="1" fill="#70433A" />
<rect x="38" y="48" width="1" height="2" fill="#87543A" />
<rect x="41" y="48" width="1" height="1" fill="#BF804B" />
<rect x="42" y="48" width="1" height="3" fill="#87543A" />
<rect x="44" y="48" width="1" height="3" fill="#87543A" />
<rect x="47" y="48" width="1" height="3" fill="#87543A" />
<rect x="49" y="48" width="1" height="3" fill="#87543A" />
<rect x="52" y="48" width="1" height="1" fill="#87543A" />
<rect x="54" y="48" width="1" height="1" fill="#472B34" />
<rect x="26" y="49" width="3" height="1" fill="#472B34" />
<rect x="32" y="49" width="1" height="7" fill="#AD5D42" />
<rect x="33" y="49" width="5" height="1" fill="#70433A" />
<rect x="39" y="49" width="3" height="1" fill="#87543A" />
<rect x="43" y="49" width="1" height="2" fill="#87543A" />
<rect x="46" y="49" width="1" height="2" fill="#87543A" />
<rect x="48" y="49" width="1" height="2" fill="#87543A" />
<rect x="50" y="49" width="1" height="1" fill="#87543A" />
<rect x="52" y="49" width="2" height="1" fill="#472B34" />
<rect x="25" y="50" width="1" height="2" fill="#472B34" />
<rect x="26" y="50" width="3" height="1" fill="#7C5974" />
<rect x="33" y="50" width="1" height="6" fill="#AD5D42" />
<rect x="34" y="50" width="8" height="1" fill="#70433A" />
<rect x="50" y="50" width="1" height="10" fill="#70433A" />
<rect x="51" y="50" width="2" height="1" fill="#472B34" />
<rect x="26" y="51" width="1" height="9" fill="#AA829C" />
<rect x="27" y="51" width="1" height="1" fill="#634358" />
<rect x="28" y="51" width="1" height="1" fill="#7C5974" />
<rect x="34" y="51" width="2" height="6" fill="#AD5D42" />
<rect x="36" y="51" width="14" height="1" fill="#70433A" />
<rect x="51" y="51" width="1" height="7" fill="#472B34" />
<rect x="52" y="51" width="1" height="1" fill="#7C5974" />
<rect x="53" y="51" width="1" height="1" fill="#472B34" />
<rect x="24" y="52" width="1" height="2" fill="#472B34" />
<rect x="25" y="52" width="1" height="7" fill="#AA829C" />
<rect x="27" y="52" width="1" height="9" fill="#AA829C" />
<rect x="28" y="52" width="1" height="1" fill="#472B34" />
<rect x="36" y="52" width="2" height="6" fill="#AD5D42" />
<rect x="38" y="52" width="11" height="1" fill="#70433A" />
<rect x="49" y="52" width="1" height="3" fill="#AD5D42" />
<rect x="52" y="52" width="2" height="1" fill="#D8B5CA" />
<rect x="54" y="52" width="3" height="1" fill="#472B34" />
<rect x="28" y="53" width="1" height="9" fill="#AA829C" />
<rect x="38" y="53" width="3" height="6" fill="#AD5D42" />
<rect x="41" y="53" width="7" height="1" fill="#70433A" />
<rect x="48" y="53" width="1" height="3" fill="#AD5D42" />
<rect x="52" y="53" width="1" height="3" fill="#AA829C" />
<rect x="53" y="53" width="3" height="1" fill="#D8B5CA" />
<rect x="56" y="53" width="1" height="1" fill="#7C5974" />
<rect x="57" y="53" width="1" height="1" fill="#472B34" />
<rect x="23" y="54" width="1" height="2" fill="#472B34" />
<rect x="24" y="54" width="1" height="4" fill="#AA829C" />
<rect x="29" y="54" width="1" height="9" fill="#AA829C" />
<rect x="30" y="54" width="1" height="1" fill="#472B34" />
<rect x="41" y="54" width="7" height="3" fill="#AD5D42" />
<rect x="53" y="54" width="2" height="3" fill="#AA829C" />
<rect x="55" y="54" width="3" height="1" fill="#D8B5CA" />
<rect x="58" y="54" width="2" height="1" fill="#472B34" />
<rect x="30" y="55" width="1" height="9" fill="#AA829C" />
<rect x="31" y="55" width="1" height="1" fill="#472B34" />
<rect x="49" y="55" width="1" height="7" fill="#D28354" />
<rect x="55" y="55" width="1" height="6" fill="#AA829C" />
<rect x="56" y="55" width="3" height="1" fill="#D8B5CA" />
<rect x="59" y="55" width="1" height="1" fill="#7C5974" />
<rect x="60" y="55" width="1" height="1" fill="#472B34" />
<rect x="22" y="56" width="1" height="1" fill="#472B34" />
<rect x="23" y="56" width="1" height="1" fill="#634358" />
<rect x="31" y="56" width="1" height="1" fill="#AA829C" />
<rect x="32" y="56" width="2" height="1" fill="#472B34" />
<rect x="48" y="56" width="1" height="7" fill="#D28354" />
<rect x="52" y="56" width="1" height="2" fill="#7C5974" />
<rect x="56" y="56" width="1" height="7" fill="#AA829C" />
<rect x="57" y="56" width="3" height="1" fill="#D8B5CA" />
<rect x="60" y="56" width="1" height="4" fill="#AA829C" />
<rect x="61" y="56" width="1" height="8" fill="#472B34" />
<rect x="20" y="57" width="1" height="1" fill="#472B34" />
<rect x="21" y="57" width="2" height="1" fill="#634358" />
<rect x="23" y="57" width="1" height="1" fill="#7C5974" />
<rect x="31" y="57" width="2" height="1" fill="#D8B5CA" />
<rect x="33" y="57" width="1" height="1" fill="#AA829C" />
<rect x="34" y="57" width="2" height="1" fill="#472B34" />
<rect x="41" y="57" width="6" height="1" fill="#AD5D42" />
<rect x="47" y="57" width="1" height="8" fill="#D28354" />
<rect x="53" y="57" width="1" height="2" fill="#7C5974" />
<rect x="54" y="57" width="1" height="2" fill="#AA829C" />
<rect x="57" y="57" width="1" height="5" fill="#AA829C" />
<rect x="58" y="57" width="1" height="14" fill="#D8B5CA" />
<rect x="59" y="57" width="1" height="2" fill="#634358" />
<rect x="18" y="58" width="2" height="1" fill="#472B34" />
<rect x="20" y="58" width="4" height="2" fill="#AA829C" />
<rect x="24" y="58" width="1" height="1" fill="#7C5974" />
<rect x="31" y="58" width="1" height="6" fill="#AA829C" />
<rect x="32" y="58" width="3" height="1" fill="#D8B5CA" />
<rect x="35" y="58" width="1" height="1" fill="#AA829C" />
<rect x="36" y="58" width="2" height="1" fill="#472B34" />
<rect x="41" y="58" width="5" height="1" fill="#AD5D42" />
<rect x="46" y="58" width="1" height="7" fill="#D28354" />
<rect x="51" y="58" width="1" height="1" fill="#AD5D42" />
<rect x="52" y="58" width="1" height="1" fill="#472B34" />
<rect x="16" y="59" width="2" height="1" fill="#472B34" />
<rect x="18" y="59" width="2" height="1" fill="#AA829C" />
<rect x="24" y="59" width="1" height="4" fill="#AA829C" />
<rect x="25" y="59" width="1" height="1" fill="#7C5974" />
<rect x="32" y="59" width="2" height="6" fill="#AA829C" />
<rect x="34" y="59" width="4" height="1" fill="#D8B5CA" />
<rect x="38" y="59" width="3" height="1" fill="#472B34" />
<rect x="41" y="59" width="4" height="1" fill="#AD5D42" />
<rect x="45" y="59" width="1" height="5" fill="#D28354" />
<rect x="51" y="59" width="1" height="11" fill="#ECB478" />
<rect x="52" y="59" width="1" height="2" fill="#AD5D42" />
<rect x="53" y="59" width="1" height="2" fill="#472B34" />
<rect x="54" y="59" width="1" height="2" fill="#7C5974" />
<rect x="59" y="59" width="1" height="1" fill="#7C5974" />
<rect x="62" y="59" width="2" height="1" fill="#472B34" />
<rect x="15" y="60" width="1" height="1" fill="#472B34" />
<rect x="16" y="60" width="2" height="1" fill="#AA829C" />
<rect x="18" y="60" width="4" height="11" fill="#D8B5CA" />
<rect x="22" y="60" width="2" height="1" fill="#AA829C" />
<rect x="25" y="60" width="1" height="3" fill="#AA829C" />
<rect x="26" y="60" width="1" height="1" fill="#7C5974" />
<rect x="34" y="60" width="2" height="7" fill="#AA829C" />
<rect x="36" y="60" width="4" height="1" fill="#D8B5CA" />
<rect x="40" y="60" width="1" height="1" fill="#AA829C" />
<rect x="41" y="60" width="2" height="1" fill="#472B34" />
<rect x="43" y="60" width="1" height="1" fill="#AD5D42" />
<rect x="44" y="60" width="1" height="2" fill="#D28354" />
<rect x="50" y="60" width="1" height="9" fill="#ECB478" />
<rect x="59" y="60" width="2" height="1" fill="#634358" />
<rect x="62" y="60" width="2" height="2" fill="#D8B5CA" />
<rect x="64" y="60" width="2" height="1" fill="#472B34" />
<rect x="14" y="61" width="1" height="1" fill="#472B34" />
<rect x="15" y="61" width="1" height="1" fill="#AA829C" />
<rect x="16" y="61" width="2" height="8" fill="#D8B5CA" />
<rect x="22" y="61" width="1" height="15" fill="#D8B5CA" />
<rect x="23" y="61" width="1" height="1" fill="#AA829C" />
<rect x="26" y="61" width="1" height="3" fill="#AA829C" />
<rect x="27" y="61" width="1" height="1" fill="#7C5974" />
<rect x="36" y="61" width="2" height="7" fill="#AA829C" />
<rect x="38" y="61" width="4" height="1" fill="#D8B5CA" />
<rect x="42" y="61" width="1" height="1" fill="#634358" />
<rect x="43" y="61" width="1" height="1" fill="#472B34" />
<rect x="52" y="61" width="1" height="10" fill="#ECB478" />
<rect x="53" y="61" width="1" height="1" fill="#AD5D42" />
<rect x="54" y="61" width="1" height="2" fill="#472B34" />
<rect x="55" y="61" width="1" height="2" fill="#7C5974" />
<rect x="59" y="61" width="1" height="6" fill="#D8B5CA" />
<rect x="60" y="61" width="1" height="1" fill="#634358" />
<rect x="64" y="61" width="2" height="19" fill="#D8B5CA" />
<rect x="66" y="61" width="2" height="1" fill="#472B34" />
<rect x="13" y="62" width="1" height="1" fill="#472B34" />
<rect x="14" y="62" width="1" height="1" fill="#AA829C" />
<rect x="15" y="62" width="1" height="16" fill="#D8B5CA" />
<rect x="23" y="62" width="1" height="12" fill="#D8B5CA" />
<rect x="27" y="62" width="1" height="2" fill="#AA829C" />
<rect x="28" y="62" width="1" height="1" fill="#7C5974" />
<rect x="38" y="62" width="1" height="7" fill="#AA829C" />
<rect x="39" y="62" width="1" height="1" fill="#D8B5CA" />
<rect x="40" y="62" width="1" height="3" fill="#634358" />
<rect x="41" y="62" width="1" height="1" fill="#AA829C" />
<rect x="42" y="62" width="1" height="1" fill="#D8B5CA" />
<rect x="43" y="62" width="1" height="1" fill="#AA829C" />
<rect x="44" y="62" width="1" height="3" fill="#472B34" />
<rect x="49" y="62" width="1" height="6" fill="#ECB478" />
<rect x="53" y="62" width="1" height="10" fill="#ECB478" />
<rect x="57" y="62" width="1" height="1" fill="#D8B5CA" />
<rect x="60" y="62" width="1" height="3" fill="#D8B5CA" />
<rect x="62" y="62" width="1" height="1" fill="#AA829C" />
<rect x="63" y="62" width="1" height="18" fill="#D8B5CA" />
<rect x="66" y="62" width="2" height="14" fill="#D8B5CA" />
<rect x="68" y="62" width="1" height="1" fill="#472B34" />
<rect x="11" y="63" width="2" height="1" fill="#472B34" />
<rect x="13" y="63" width="1" height="1" fill="#AA829C" />
<rect x="14" y="63" width="1" height="14" fill="#D8B5CA" />
<rect x="24" y="63" width="2" height="12" fill="#D8B5CA" />
<rect x="28" y="63" width="1" height="2" fill="#AA829C" />
<rect x="29" y="63" width="1" height="1" fill="#7C5974" />
<rect x="39" y="63" width="1" height="2" fill="#7C5974" />
<rect x="41" y="63" width="1" height="1" fill="#634358" />
<rect x="42" y="63" width="1" height="1" fill="#AA829C" />
<rect x="43" y="63" width="1" height="3" fill="#D8B5CA" />
<rect x="48" y="63" width="1" height="4" fill="#ECB478" />
<rect x="54" y="63" width="1" height="1" fill="#AD5D42" />
<rect x="55" y="63" width="1" height="5" fill="#472B34" />
<rect x="56" y="63" width="1" height="1" fill="#7C5974" />
<rect x="57" y="63" width="1" height="5" fill="#AA829C" />
<rect x="62" y="63" width="1" height="1" fill="#472B34" />
<rect x="68" y="63" width="1" height="5" fill="#D8B5CA" />
<rect x="69" y="63" width="1" height="1" fill="#472B34" />
<rect x="10" y="64" width="1" height="2" fill="#472B34" />
<rect x="11" y="64" width="3" height="8" fill="#D8B5CA" />
<rect x="26" y="64" width="2" height="16" fill="#D8B5CA" />
<rect x="29" y="64" width="1" height="1" fill="#AA829C" />
<rect x="30" y="64" width="2" height="1" fill="#7C5974" />
<rect x="41" y="64" width="2" height="3" fill="#7C5974" />
<rect x="45" y="64" width="1" height="1" fill="#AD5D42" />
<rect x="54" y="64" width="1" height="9" fill="#ECB478" />
<rect x="56" y="64" width="1" height="3" fill="#AA829C" />
<rect x="61" y="64" width="2" height="16" fill="#D8B5CA" />
<rect x="69" y="64" width="1" height="9" fill="#D8B5CA" />
<rect x="70" y="64" width="1" height="2" fill="#472B34" />
<rect x="28" y="65" width="2" height="15" fill="#D8B5CA" />
<rect x="30" y="65" width="1" height="1" fill="#AA829C" />
<rect x="31" y="65" width="2" height="1" fill="#7C5974" />
<rect x="33" y="65" width="1" height="1" fill="#AA829C" />
<rect x="39" y="65" width="1" height="4" fill="#634358" />
<rect x="40" y="65" width="1" height="3" fill="#7C5974" />
<rect x="44" y="65" width="1" height="1" fill="#AA829C" />
<rect x="45" y="65" width="1" height="1" fill="#472B34" />
<rect x="46" y="65" width="2" height="1" fill="#ECB478" />
<rect x="60" y="65" width="1" height="3" fill="#634358" />
<rect x="9" y="66" width="1" height="2" fill="#472B34" />
<rect x="10" y="66" width="1" height="4" fill="#D8B5CA" />
<rect x="30" y="66" width="2" height="14" fill="#D8B5CA" />
<rect x="32" y="66" width="2" height="1" fill="#7C5974" />
<rect x="43" y="66" width="1" height="1" fill="#7C5974" />
<rect x="44" y="66" width="1" height="1" fill="#D8B5CA" />
<rect x="45" y="66" width="1" height="1" fill="#7C5974" />
<rect x="46" y="66" width="1" height="1" fill="#472B34" />
<rect x="47" y="66" width="1" height="1" fill="#ECB478" />
<rect x="70" y="66" width="1" height="14" fill="#D8B5CA" />
<rect x="71" y="66" width="1" height="2" fill="#472B34" />
<rect x="32" y="67" width="2" height="13" fill="#D8B5CA" />
<rect x="34" y="67" width="2" height="1" fill="#7C5974" />
<rect x="41" y="67" width="1" height="1" fill="#7C5974" />
<rect x="42" y="67" width="3" height="1" fill="#AA829C" />
<rect x="45" y="67" width="2" height="1" fill="#D8B5CA" />
<rect x="47" y="67" width="2" height="1" fill="#472B34" />
<rect x="56" y="67" width="1" height="1" fill="#7C5974" />
<rect x="59" y="67" width="1" height="2" fill="#AA829C" />
<rect x="8" y="68" width="1" height="3" fill="#472B34" />
<rect x="9" y="68" width="1" height="12" fill="#AA829C" />
<rect x="34" y="68" width="1" height="12" fill="#D8B5CA" />
<rect x="35" y="68" width="1" height="1" fill="#AA829C" />
<rect x="36" y="68" width="1" height="1" fill="#7C5974" />
<rect x="37" y="68" width="1" height="1" fill="#AA829C" />
<rect x="40" y="68" width="2" height="1" fill="#AA829C" />
<rect x="42" y="68" width="1" height="1" fill="#7C5974" />
<rect x="43" y="68" width="4" height="1" fill="#AA829C" />
<rect x="47" y="68" width="1" height="2" fill="#D8B5CA" />
<rect x="48" y="68" width="1" height="1" fill="#AA829C" />
<rect x="49" y="68" width="1" height="1" fill="#472B34" />
<rect x="55" y="68" width="1" height="6" fill="#AD5D42" />
<rect x="56" y="68" width="1" height="6" fill="#472B34" />
<rect x="57" y="68" width="1" height="9" fill="#D8B5CA" />
<rect x="60" y="68" width="1" height="1" fill="#7C5974" />
<rect x="68" y="68" width="1" height="2" fill="#AA829C" />
<rect x="71" y="68" width="1" height="12" fill="#D8B5CA" />
<rect x="72" y="68" width="1" height="3" fill="#472B34" />
<rect x="16" y="69" width="1" height="1" fill="#AA829C" />
<rect x="17" y="69" width="1" height="1" fill="#D8B5CA" />
<rect x="35" y="69" width="2" height="11" fill="#D8B5CA" />
<rect x="37" y="69" width="2" height="1" fill="#7C5974" />
<rect x="39" y="69" width="3" height="11" fill="#D8B5CA" />
<rect x="42" y="69" width="1" height="1" fill="#AA829C" />
<rect x="43" y="69" width="1" height="1" fill="#7C5974" />
<rect x="44" y="69" width="3" height="1" fill="#AA829C" />
<rect x="48" y="69" width="1" height="3" fill="#D8B5CA" />
<rect x="49" y="69" width="1" height="1" fill="#AA829C" />
<rect x="50" y="69" width="1" height="1" fill="#472B34" />
<rect x="59" y="69" width="1" height="2" fill="#634358" />
<rect x="60" y="69" width="1" height="2" fill="#AA829C" />
<rect x="10" y="70" width="1" height="10" fill="#AA829C" />
<rect x="16" y="70" width="1" height="9" fill="#D8B5CA" />
<rect x="17" y="70" width="1" height="1" fill="#AA829C" />
<rect x="37" y="70" width="2" height="10" fill="#D8B5CA" />
<rect x="42" y="70" width="2" height="10" fill="#D8B5CA" />
<rect x="44" y="70" width="2" height="1" fill="#7C5974" />
<rect x="46" y="70" width="2" height="1" fill="#AA829C" />
<rect x="49" y="70" width="1" height="3" fill="#D8B5CA" />
<rect x="50" y="70" width="1" height="1" fill="#AA829C" />
<rect x="51" y="70" width="1" height="1" fill="#472B34" />
<rect x="68" y="70" width="1" height="4" fill="#7C5974" />
<rect x="7" y="71" width="1" height="4" fill="#472B34" />
<rect x="8" y="71" width="1" height="9" fill="#AA829C" />
<rect x="17" y="71" width="1" height="9" fill="#D8B5CA" />
<rect x="18" y="71" width="1" height="1" fill="#AA829C" />
<rect x="19" y="71" width="3" height="1" fill="#D8B5CA" />
<rect x="44" y="71" width="1" height="9" fill="#D8B5CA" />
<rect x="45" y="71" width="1" height="1" fill="#AA829C" />
<rect x="46" y="71" width="2" height="1" fill="#7C5974" />
<rect x="50" y="71" width="1" height="3" fill="#D8B5CA" />
<rect x="51" y="71" width="1" height="1" fill="#AA829C" />
<rect x="52" y="71" width="1" height="1" fill="#472B34" />
<rect x="58" y="71" width="1" height="4" fill="#634358" />
<rect x="59" y="71" width="1" height="1" fill="#7C5974" />
<rect x="60" y="71" width="1" height="9" fill="#D8B5CA" />
<rect x="72" y="71" width="1" height="2" fill="#AA829C" />
<rect x="73" y="71" width="1" height="3" fill="#472B34" />
<rect x="11" y="72" width="1" height="8" fill="#AA829C" />
<rect x="12" y="72" width="2" height="2" fill="#D8B5CA" />
<rect x="18" y="72" width="1" height="8" fill="#D8B5CA" />
<rect x="19" y="72" width="1" height="1" fill="#AA829C" />
<rect x="20" y="72" width="2" height="1" fill="#D8B5CA" />
<rect x="45" y="72" width="2" height="8" fill="#D8B5CA" />
<rect x="47" y="72" width="1" height="1" fill="#AA829C" />
<rect x="48" y="72" width="1" height="1" fill="#7C5974" />
<rect x="51" y="72" width="1" height="3" fill="#D8B5CA" />
<rect x="52" y="72" width="1" height="1" fill="#AA829C" />
<rect x="53" y="72" width="1" height="1" fill="#472B34" />
<rect x="59" y="72" width="1" height="2" fill="#AA829C" />
<rect x="19" y="73" width="1" height="7" fill="#D8B5CA" />
<rect x="20" y="73" width="1" height="1" fill="#AA829C" />
<rect x="21" y="73" width="1" height="1" fill="#D8B5CA" />
<rect x="47" y="73" width="2" height="7" fill="#D8B5CA" />
<rect x="49" y="73" width="1" height="1" fill="#7C5974" />
<rect x="52" y="73" width="1" height="3" fill="#D8B5CA" />
<rect x="53" y="73" width="1" height="1" fill="#AA829C" />
<rect x="54" y="73" width="1" height="1" fill="#472B34" />
<rect x="69" y="73" width="1" height="2" fill="#AA829C" />
<rect x="72" y="73" width="1" height="7" fill="#D8B5CA" />
<rect x="12" y="74" width="1" height="6" fill="#AA829C" />
<rect x="13" y="74" width="1" height="2" fill="#D8B5CA" />
<rect x="20" y="74" width="1" height="6" fill="#D8B5CA" />
<rect x="21" y="74" width="1" height="2" fill="#AA829C" />
<rect x="23" y="74" width="1" height="1" fill="#AA829C" />
<rect x="49" y="74" width="1" height="6" fill="#D8B5CA" />
<rect x="50" y="74" width="1" height="1" fill="#7C5974" />
<rect x="53" y="74" width="1" height="3" fill="#D8B5CA" />
<rect x="54" y="74" width="1" height="1" fill="#AA829C" />
<rect x="55" y="74" width="1" height="6" fill="#472B34" />
<rect x="56" y="74" width="1" height="1" fill="#7C5974" />
<rect x="59" y="74" width="1" height="6" fill="#D8B5CA" />
<rect x="68" y="74" width="1" height="3" fill="#634358" />
<rect x="73" y="74" width="1" height="2" fill="#AA829C" />
<rect x="74" y="74" width="1" height="6" fill="#472B34" />
<rect x="6" y="75" width="1" height="5" fill="#472B34" />
<rect x="7" y="75" width="1" height="5" fill="#AA829C" />
<rect x="23" y="75" width="1" height="2" fill="#D8B5CA" />
<rect x="24" y="75" width="1" height="3" fill="#AA829C" />
<rect x="25" y="75" width="1" height="3" fill="#D8B5CA" />
<rect x="50" y="75" width="1" height="5" fill="#D8B5CA" />
<rect x="51" y="75" width="1" height="1" fill="#AA829C" />
<rect x="54" y="75" width="1" height="3" fill="#D8B5CA" />
<rect x="56" y="75" width="1" height="5" fill="#D8B5CA" />
<rect x="58" y="75" width="1" height="1" fill="#7C5974" />
<rect x="69" y="75" width="1" height="5" fill="#D8B5CA" />
<rect x="13" y="76" width="1" height="4" fill="#AA829C" />
<rect x="21" y="76" width="1" height="4" fill="#D8B5CA" />
<rect x="22" y="76" width="1" height="3" fill="#AA829C" />
<rect x="51" y="76" width="1" height="4" fill="#D8B5CA" />
<rect x="52" y="76" width="1" height="1" fill="#AA829C" />
<rect x="58" y="76" width="1" height="1" fill="#AA829C" />
<rect x="66" y="76" width="1" height="4" fill="#D8B5CA" />
<rect x="67" y="76" width="1" height="1" fill="#AA829C" />
<rect x="73" y="76" width="1" height="4" fill="#D8B5CA" />
<rect x="14" y="77" width="1" height="3" fill="#AA829C" />
<rect x="23" y="77" width="1" height="1" fill="#AA829C" />
<rect x="52" y="77" width="1" height="3" fill="#D8B5CA" />
<rect x="53" y="77" width="1" height="1" fill="#AA829C" />
<rect x="57" y="77" width="1" height="3" fill="#AA829C" />
<rect x="58" y="77" width="1" height="3" fill="#D8B5CA" />
<rect x="67" y="77" width="1" height="3" fill="#634358" />
<rect x="68" y="77" width="1" height="3" fill="#AA829C" />
<rect x="15" y="78" width="1" height="2" fill="#AA829C" />
<rect x="23" y="78" width="2" height="2" fill="#7C5974" />
<rect x="25" y="78" width="1" height="2" fill="#AA829C" />
<rect x="53" y="78" width="1" height="2" fill="#D8B5CA" />
<rect x="54" y="78" width="1" height="2" fill="#AA829C" />
<rect x="16" y="79" width="1" height="1" fill="#AA829C" />
<rect x="22" y="79" width="1" height="1" fill="#7C5974" />
</svg>